<mxfile host="app.diagrams.net" modified="2023-06-10T15:40:06.163Z" agent="Mozilla/5.0 (Windows NT 10.0; Win64; x64; rv:109.0) Gecko/20100101 Firefox/113.0" etag="X6egw8Z2MXQ9HQcJcsca" version="21.3.7" type="device">
  <diagram name="Page-1" id="c9db0220-8083-56f3-ca83-edcdcd058819">
    <mxGraphModel dx="1434" dy="782" grid="1" gridSize="10" guides="1" tooltips="1" connect="1" arrows="1" fold="1" page="1" pageScale="1.5" pageWidth="826" pageHeight="1169" background="none" math="0" shadow="0">
      <root>
        <mxCell id="0" style=";html=1;" />
        <mxCell id="1" style=";html=1;" parent="0" />
        <mxCell id="8euLcORZt_nUvRzcAU-U-29" value="" style="rounded=0;whiteSpace=wrap;html=1;" parent="1" vertex="1">
          <mxGeometry x="10" y="11.5" width="1200" height="800" as="geometry" />
        </mxCell>
        <mxCell id="8euLcORZt_nUvRzcAU-U-80" value="&lt;div align=&quot;left&quot;&gt;&lt;font style=&quot;font-size: 20px;&quot;&gt;Charaktersicht - Arya - DSA 4.1&lt;/font&gt;&lt;br&gt;&lt;/div&gt;" style="text;strokeColor=none;align=left;fillColor=none;html=1;verticalAlign=middle;whiteSpace=wrap;rounded=0;" parent="1" vertex="1">
          <mxGeometry x="25" y="22" width="505" height="30" as="geometry" />
        </mxCell>
        <mxCell id="_A281-lSUZGm7CiEEgKg-4" value="" style="rounded=1;whiteSpace=wrap;html=1;" vertex="1" parent="1">
          <mxGeometry x="26" y="72" width="60" height="60" as="geometry" />
        </mxCell>
        <mxCell id="_A281-lSUZGm7CiEEgKg-7" value="" style="shape=flexArrow;endArrow=classic;html=1;rounded=0;fillColor=#F0F0F0;strokeColor=#F0F0F0;" edge="1" parent="1">
          <mxGeometry width="50" height="50" relative="1" as="geometry">
            <mxPoint x="76" y="102" as="sourcePoint" />
            <mxPoint x="36" y="102" as="targetPoint" />
          </mxGeometry>
        </mxCell>
        <mxCell id="_A281-lSUZGm7CiEEgKg-9" value="" style="rounded=0;whiteSpace=wrap;html=1;" vertex="1" parent="1">
          <mxGeometry x="54" y="215" width="200" height="250" as="geometry" />
        </mxCell>
        <mxCell id="_A281-lSUZGm7CiEEgKg-38" value="" style="shape=table;startSize=0;container=1;collapsible=0;childLayout=tableLayout;shadow=0;rounded=0;arcSize=48;swimlaneLine=0;strokeWidth=1;strokeColor=none;" vertex="1" parent="1">
          <mxGeometry x="274" y="292" width="425" height="177" as="geometry" />
        </mxCell>
        <mxCell id="_A281-lSUZGm7CiEEgKg-39" value="" style="shape=tableRow;horizontal=0;startSize=0;swimlaneHead=0;swimlaneBody=0;strokeColor=inherit;top=0;left=0;bottom=0;right=0;collapsible=0;dropTarget=0;fillColor=none;points=[[0,0.5],[1,0.5]];portConstraint=eastwest;" vertex="1" parent="_A281-lSUZGm7CiEEgKg-38">
          <mxGeometry width="425" height="44" as="geometry" />
        </mxCell>
        <mxCell id="_A281-lSUZGm7CiEEgKg-40" value="&lt;div align=&quot;left&quot;&gt;&lt;b&gt;&lt;font style=&quot;font-size: 24px;&quot;&gt;Rasse:&lt;/font&gt;&lt;/b&gt;&lt;/div&gt;" style="shape=partialRectangle;html=1;whiteSpace=wrap;connectable=0;strokeColor=inherit;overflow=hidden;fillColor=none;top=0;left=0;bottom=0;right=0;pointerEvents=1;align=left;" vertex="1" parent="_A281-lSUZGm7CiEEgKg-39">
          <mxGeometry width="145" height="44" as="geometry">
            <mxRectangle width="145" height="44" as="alternateBounds" />
          </mxGeometry>
        </mxCell>
        <mxCell id="_A281-lSUZGm7CiEEgKg-41" value="&lt;font style=&quot;font-size: 24px;&quot;&gt;&amp;nbsp; Mensch&lt;/font&gt;" style="shape=partialRectangle;html=1;whiteSpace=wrap;connectable=0;strokeColor=inherit;overflow=hidden;fillColor=none;top=0;left=0;bottom=0;right=0;pointerEvents=1;align=left;" vertex="1" parent="_A281-lSUZGm7CiEEgKg-39">
          <mxGeometry x="145" width="280" height="44" as="geometry">
            <mxRectangle width="280" height="44" as="alternateBounds" />
          </mxGeometry>
        </mxCell>
        <mxCell id="_A281-lSUZGm7CiEEgKg-42" value="" style="shape=tableRow;horizontal=0;startSize=0;swimlaneHead=0;swimlaneBody=0;strokeColor=inherit;top=0;left=0;bottom=0;right=0;collapsible=0;dropTarget=0;fillColor=none;points=[[0,0.5],[1,0.5]];portConstraint=eastwest;" vertex="1" parent="_A281-lSUZGm7CiEEgKg-38">
          <mxGeometry y="44" width="425" height="45" as="geometry" />
        </mxCell>
        <mxCell id="_A281-lSUZGm7CiEEgKg-43" value="&lt;div align=&quot;left&quot;&gt;&lt;b&gt;&lt;font style=&quot;font-size: 24px;&quot;&gt;Geschlecht:&lt;/font&gt;&lt;/b&gt;&lt;/div&gt;" style="shape=partialRectangle;html=1;whiteSpace=wrap;connectable=0;strokeColor=inherit;overflow=hidden;fillColor=none;top=0;left=0;bottom=0;right=0;pointerEvents=1;align=left;" vertex="1" parent="_A281-lSUZGm7CiEEgKg-42">
          <mxGeometry width="145" height="45" as="geometry">
            <mxRectangle width="145" height="45" as="alternateBounds" />
          </mxGeometry>
        </mxCell>
        <mxCell id="_A281-lSUZGm7CiEEgKg-44" value="&lt;div style=&quot;font-size: 24px;&quot; align=&quot;left&quot;&gt;&lt;font style=&quot;font-size: 24px;&quot;&gt;&amp;nbsp; Weiblich&lt;/font&gt;&lt;/div&gt;" style="shape=partialRectangle;html=1;whiteSpace=wrap;connectable=0;strokeColor=inherit;overflow=hidden;fillColor=none;top=0;left=0;bottom=0;right=0;pointerEvents=1;align=left;" vertex="1" parent="_A281-lSUZGm7CiEEgKg-42">
          <mxGeometry x="145" width="280" height="45" as="geometry">
            <mxRectangle width="280" height="45" as="alternateBounds" />
          </mxGeometry>
        </mxCell>
        <mxCell id="_A281-lSUZGm7CiEEgKg-45" value="" style="shape=tableRow;horizontal=0;startSize=0;swimlaneHead=0;swimlaneBody=0;strokeColor=inherit;top=0;left=0;bottom=0;right=0;collapsible=0;dropTarget=0;fillColor=none;points=[[0,0.5],[1,0.5]];portConstraint=eastwest;" vertex="1" parent="_A281-lSUZGm7CiEEgKg-38">
          <mxGeometry y="89" width="425" height="44" as="geometry" />
        </mxCell>
        <mxCell id="_A281-lSUZGm7CiEEgKg-46" value="&lt;div style=&quot;font-size: 24px;&quot; align=&quot;left&quot;&gt;&lt;b&gt;&lt;font style=&quot;font-size: 24px;&quot;&gt;Geburtstag&lt;/font&gt;:&lt;/b&gt;&lt;/div&gt;" style="shape=partialRectangle;html=1;whiteSpace=wrap;connectable=0;strokeColor=inherit;overflow=hidden;fillColor=none;top=0;left=0;bottom=0;right=0;pointerEvents=1;align=left;" vertex="1" parent="_A281-lSUZGm7CiEEgKg-45">
          <mxGeometry width="145" height="44" as="geometry">
            <mxRectangle width="145" height="44" as="alternateBounds" />
          </mxGeometry>
        </mxCell>
        <mxCell id="_A281-lSUZGm7CiEEgKg-47" value="&lt;font style=&quot;font-size: 24px;&quot;&gt;&amp;nbsp; 08 Phex 990 BF&lt;/font&gt;" style="shape=partialRectangle;html=1;whiteSpace=wrap;connectable=0;strokeColor=inherit;overflow=hidden;fillColor=none;top=0;left=0;bottom=0;right=0;pointerEvents=1;align=left;" vertex="1" parent="_A281-lSUZGm7CiEEgKg-45">
          <mxGeometry x="145" width="280" height="44" as="geometry">
            <mxRectangle width="280" height="44" as="alternateBounds" />
          </mxGeometry>
        </mxCell>
        <mxCell id="_A281-lSUZGm7CiEEgKg-48" value="" style="shape=tableRow;horizontal=0;startSize=0;swimlaneHead=0;swimlaneBody=0;strokeColor=inherit;top=0;left=0;bottom=0;right=0;collapsible=0;dropTarget=0;fillColor=none;points=[[0,0.5],[1,0.5]];portConstraint=eastwest;" vertex="1" parent="_A281-lSUZGm7CiEEgKg-38">
          <mxGeometry y="133" width="425" height="44" as="geometry" />
        </mxCell>
        <mxCell id="_A281-lSUZGm7CiEEgKg-49" value="&lt;div align=&quot;left&quot;&gt;&lt;b&gt;&lt;font style=&quot;font-size: 24px;&quot;&gt;Alter:&lt;/font&gt;&lt;/b&gt;&lt;/div&gt;" style="shape=partialRectangle;html=1;whiteSpace=wrap;connectable=0;strokeColor=inherit;overflow=hidden;fillColor=none;top=0;left=0;bottom=0;right=0;pointerEvents=1;align=left;" vertex="1" parent="_A281-lSUZGm7CiEEgKg-48">
          <mxGeometry width="145" height="44" as="geometry">
            <mxRectangle width="145" height="44" as="alternateBounds" />
          </mxGeometry>
        </mxCell>
        <mxCell id="_A281-lSUZGm7CiEEgKg-50" value="&lt;div style=&quot;font-size: 24px;&quot; align=&quot;left&quot;&gt;&lt;font style=&quot;font-size: 24px;&quot;&gt;&amp;nbsp; 26 Winter&lt;br&gt;&lt;/font&gt;&lt;/div&gt;" style="shape=partialRectangle;html=1;whiteSpace=wrap;connectable=0;strokeColor=inherit;overflow=hidden;fillColor=none;top=0;left=0;bottom=0;right=0;pointerEvents=1;align=left;" vertex="1" parent="_A281-lSUZGm7CiEEgKg-48">
          <mxGeometry x="145" width="280" height="44" as="geometry">
            <mxRectangle width="280" height="44" as="alternateBounds" />
          </mxGeometry>
        </mxCell>
        <mxCell id="_A281-lSUZGm7CiEEgKg-75" value="" style="shape=table;startSize=0;container=1;collapsible=0;childLayout=tableLayout;shadow=0;rounded=0;arcSize=48;swimlaneLine=0;strokeWidth=1;strokeColor=none;fillColor=none;" vertex="1" parent="1">
          <mxGeometry x="701.5" y="292" width="507" height="177" as="geometry" />
        </mxCell>
        <mxCell id="_A281-lSUZGm7CiEEgKg-76" value="" style="shape=tableRow;horizontal=0;startSize=0;swimlaneHead=0;swimlaneBody=0;strokeColor=inherit;top=0;left=0;bottom=0;right=0;collapsible=0;dropTarget=0;fillColor=none;points=[[0,0.5],[1,0.5]];portConstraint=eastwest;" vertex="1" parent="_A281-lSUZGm7CiEEgKg-75">
          <mxGeometry width="507" height="44" as="geometry" />
        </mxCell>
        <mxCell id="_A281-lSUZGm7CiEEgKg-77" value="&lt;div align=&quot;left&quot;&gt;&lt;b&gt;&lt;font style=&quot;font-size: 24px;&quot;&gt;Kultur:&lt;/font&gt;&lt;/b&gt;&lt;/div&gt;" style="shape=partialRectangle;html=1;whiteSpace=wrap;connectable=0;strokeColor=inherit;overflow=hidden;fillColor=none;top=0;left=0;bottom=0;right=0;pointerEvents=1;align=left;" vertex="1" parent="_A281-lSUZGm7CiEEgKg-76">
          <mxGeometry width="147" height="44" as="geometry">
            <mxRectangle width="147" height="44" as="alternateBounds" />
          </mxGeometry>
        </mxCell>
        <mxCell id="_A281-lSUZGm7CiEEgKg-78" value="&lt;font style=&quot;font-size: 24px;&quot;&gt;&amp;nbsp; Mittelländische Städte&lt;br&gt;&lt;/font&gt;" style="shape=partialRectangle;html=1;whiteSpace=wrap;connectable=0;strokeColor=inherit;overflow=hidden;fillColor=none;top=0;left=0;bottom=0;right=0;pointerEvents=1;align=left;" vertex="1" parent="_A281-lSUZGm7CiEEgKg-76">
          <mxGeometry x="147" width="360" height="44" as="geometry">
            <mxRectangle width="360" height="44" as="alternateBounds" />
          </mxGeometry>
        </mxCell>
        <mxCell id="_A281-lSUZGm7CiEEgKg-79" value="" style="shape=tableRow;horizontal=0;startSize=0;swimlaneHead=0;swimlaneBody=0;strokeColor=inherit;top=0;left=0;bottom=0;right=0;collapsible=0;dropTarget=0;fillColor=none;points=[[0,0.5],[1,0.5]];portConstraint=eastwest;" vertex="1" parent="_A281-lSUZGm7CiEEgKg-75">
          <mxGeometry y="44" width="507" height="45" as="geometry" />
        </mxCell>
        <mxCell id="_A281-lSUZGm7CiEEgKg-80" value="&lt;font style=&quot;font-size: 24px;&quot;&gt;&lt;b&gt;Varianten:&lt;/b&gt;&lt;/font&gt;" style="shape=partialRectangle;html=1;whiteSpace=wrap;connectable=0;strokeColor=inherit;overflow=hidden;fillColor=none;top=0;left=0;bottom=0;right=0;pointerEvents=1;align=left;" vertex="1" parent="_A281-lSUZGm7CiEEgKg-79">
          <mxGeometry width="147" height="45" as="geometry">
            <mxRectangle width="147" height="45" as="alternateBounds" />
          </mxGeometry>
        </mxCell>
        <mxCell id="_A281-lSUZGm7CiEEgKg-81" value="&lt;font style=&quot;font-size: 24px;&quot;&gt;&amp;nbsp; Hafenstadt, Pilgerstadt&lt;br&gt;&lt;/font&gt;" style="shape=partialRectangle;html=1;whiteSpace=wrap;connectable=0;strokeColor=inherit;overflow=hidden;fillColor=none;top=0;left=0;bottom=0;right=0;pointerEvents=1;align=left;" vertex="1" parent="_A281-lSUZGm7CiEEgKg-79">
          <mxGeometry x="147" width="360" height="45" as="geometry">
            <mxRectangle width="360" height="45" as="alternateBounds" />
          </mxGeometry>
        </mxCell>
        <mxCell id="_A281-lSUZGm7CiEEgKg-82" value="" style="shape=tableRow;horizontal=0;startSize=0;swimlaneHead=0;swimlaneBody=0;strokeColor=inherit;top=0;left=0;bottom=0;right=0;collapsible=0;dropTarget=0;fillColor=none;points=[[0,0.5],[1,0.5]];portConstraint=eastwest;" vertex="1" parent="_A281-lSUZGm7CiEEgKg-75">
          <mxGeometry y="89" width="507" height="44" as="geometry" />
        </mxCell>
        <mxCell id="_A281-lSUZGm7CiEEgKg-83" value="&lt;div align=&quot;left&quot;&gt;&lt;b&gt;&lt;font style=&quot;font-size: 24px;&quot;&gt;Profession:&lt;/font&gt;&lt;/b&gt;&lt;/div&gt;" style="shape=partialRectangle;html=1;whiteSpace=wrap;connectable=0;strokeColor=inherit;overflow=hidden;fillColor=none;top=0;left=0;bottom=0;right=0;pointerEvents=1;align=left;" vertex="1" parent="_A281-lSUZGm7CiEEgKg-82">
          <mxGeometry width="147" height="44" as="geometry">
            <mxRectangle width="147" height="44" as="alternateBounds" />
          </mxGeometry>
        </mxCell>
        <mxCell id="_A281-lSUZGm7CiEEgKg-84" value="&lt;font style=&quot;font-size: 24px;&quot;&gt;&amp;nbsp; Gaukler&lt;/font&gt;" style="shape=partialRectangle;html=1;whiteSpace=wrap;connectable=0;strokeColor=inherit;overflow=hidden;fillColor=none;top=0;left=0;bottom=0;right=0;pointerEvents=1;align=left;" vertex="1" parent="_A281-lSUZGm7CiEEgKg-82">
          <mxGeometry x="147" width="360" height="44" as="geometry">
            <mxRectangle width="360" height="44" as="alternateBounds" />
          </mxGeometry>
        </mxCell>
        <mxCell id="_A281-lSUZGm7CiEEgKg-85" value="" style="shape=tableRow;horizontal=0;startSize=0;swimlaneHead=0;swimlaneBody=0;strokeColor=inherit;top=0;left=0;bottom=0;right=0;collapsible=0;dropTarget=0;fillColor=none;points=[[0,0.5],[1,0.5]];portConstraint=eastwest;" vertex="1" parent="_A281-lSUZGm7CiEEgKg-75">
          <mxGeometry y="133" width="507" height="44" as="geometry" />
        </mxCell>
        <mxCell id="_A281-lSUZGm7CiEEgKg-86" value="&lt;b&gt;&lt;font style=&quot;font-size: 24px;&quot;&gt;BGB:&lt;/font&gt;&lt;/b&gt;" style="shape=partialRectangle;html=1;whiteSpace=wrap;connectable=0;strokeColor=inherit;overflow=hidden;fillColor=none;top=0;left=0;bottom=0;right=0;pointerEvents=1;align=left;" vertex="1" parent="_A281-lSUZGm7CiEEgKg-85">
          <mxGeometry width="147" height="44" as="geometry">
            <mxRectangle width="147" height="44" as="alternateBounds" />
          </mxGeometry>
        </mxCell>
        <mxCell id="_A281-lSUZGm7CiEEgKg-87" value="&lt;font style=&quot;font-size: 24px;&quot;&gt;&amp;nbsp; Phexgeweihter&lt;br&gt;&lt;/font&gt;" style="shape=partialRectangle;html=1;whiteSpace=wrap;connectable=0;strokeColor=inherit;overflow=hidden;fillColor=none;top=0;left=0;bottom=0;right=0;pointerEvents=1;align=left;" vertex="1" parent="_A281-lSUZGm7CiEEgKg-85">
          <mxGeometry x="147" width="360" height="44" as="geometry">
            <mxRectangle width="360" height="44" as="alternateBounds" />
          </mxGeometry>
        </mxCell>
        <mxCell id="_A281-lSUZGm7CiEEgKg-90" value="&lt;font style=&quot;font-size: 19px;&quot;&gt;Editiermodus&lt;/font&gt;" style="rounded=1;whiteSpace=wrap;html=1;" vertex="1" parent="1">
          <mxGeometry x="1060" y="72" width="132" height="60" as="geometry" />
        </mxCell>
        <mxCell id="_A281-lSUZGm7CiEEgKg-109" value="" style="rounded=1;whiteSpace=wrap;html=1;fillColor=none;" vertex="1" parent="1">
          <mxGeometry x="427" y="427" width="229" height="40" as="geometry" />
        </mxCell>
        <mxCell id="_A281-lSUZGm7CiEEgKg-113" value="" style="shape=table;startSize=0;container=1;collapsible=0;childLayout=tableLayout;shadow=0;rounded=0;arcSize=48;swimlaneLine=0;strokeWidth=1;strokeColor=none;fillColor=none;" vertex="1" parent="1">
          <mxGeometry x="121" y="513" width="507" height="177" as="geometry" />
        </mxCell>
        <mxCell id="_A281-lSUZGm7CiEEgKg-114" value="" style="shape=tableRow;horizontal=0;startSize=0;swimlaneHead=0;swimlaneBody=0;strokeColor=inherit;top=0;left=0;bottom=0;right=0;collapsible=0;dropTarget=0;fillColor=none;points=[[0,0.5],[1,0.5]];portConstraint=eastwest;" vertex="1" parent="_A281-lSUZGm7CiEEgKg-113">
          <mxGeometry width="507" height="44" as="geometry" />
        </mxCell>
        <mxCell id="_A281-lSUZGm7CiEEgKg-115" value="&lt;div align=&quot;left&quot;&gt;&lt;b&gt;&lt;font style=&quot;font-size: 24px;&quot;&gt;Größe:&lt;/font&gt;&lt;/b&gt;&lt;/div&gt;" style="shape=partialRectangle;html=1;whiteSpace=wrap;connectable=0;strokeColor=inherit;overflow=hidden;fillColor=none;top=0;left=0;bottom=0;right=0;pointerEvents=1;align=left;" vertex="1" parent="_A281-lSUZGm7CiEEgKg-114">
          <mxGeometry width="157" height="44" as="geometry">
            <mxRectangle width="157" height="44" as="alternateBounds" />
          </mxGeometry>
        </mxCell>
        <mxCell id="_A281-lSUZGm7CiEEgKg-116" value="&lt;font style=&quot;font-size: 24px;&quot;&gt;&amp;nbsp; 1,78 Schritt&lt;br&gt;&lt;/font&gt;" style="shape=partialRectangle;html=1;whiteSpace=wrap;connectable=0;strokeColor=inherit;overflow=hidden;fillColor=none;top=0;left=0;bottom=0;right=0;pointerEvents=1;align=left;" vertex="1" parent="_A281-lSUZGm7CiEEgKg-114">
          <mxGeometry x="157" width="350" height="44" as="geometry">
            <mxRectangle width="350" height="44" as="alternateBounds" />
          </mxGeometry>
        </mxCell>
        <mxCell id="_A281-lSUZGm7CiEEgKg-117" value="" style="shape=tableRow;horizontal=0;startSize=0;swimlaneHead=0;swimlaneBody=0;strokeColor=inherit;top=0;left=0;bottom=0;right=0;collapsible=0;dropTarget=0;fillColor=none;points=[[0,0.5],[1,0.5]];portConstraint=eastwest;" vertex="1" parent="_A281-lSUZGm7CiEEgKg-113">
          <mxGeometry y="44" width="507" height="45" as="geometry" />
        </mxCell>
        <mxCell id="_A281-lSUZGm7CiEEgKg-118" value="&lt;font style=&quot;font-size: 24px;&quot;&gt;&lt;b&gt;Gewicht:&lt;/b&gt;&lt;/font&gt;" style="shape=partialRectangle;html=1;whiteSpace=wrap;connectable=0;strokeColor=inherit;overflow=hidden;fillColor=none;top=0;left=0;bottom=0;right=0;pointerEvents=1;align=left;" vertex="1" parent="_A281-lSUZGm7CiEEgKg-117">
          <mxGeometry width="157" height="45" as="geometry">
            <mxRectangle width="157" height="45" as="alternateBounds" />
          </mxGeometry>
        </mxCell>
        <mxCell id="_A281-lSUZGm7CiEEgKg-119" value="&lt;font style=&quot;font-size: 24px;&quot;&gt;&amp;nbsp; 76 Stein&lt;br&gt;&lt;/font&gt;" style="shape=partialRectangle;html=1;whiteSpace=wrap;connectable=0;strokeColor=inherit;overflow=hidden;fillColor=none;top=0;left=0;bottom=0;right=0;pointerEvents=1;align=left;" vertex="1" parent="_A281-lSUZGm7CiEEgKg-117">
          <mxGeometry x="157" width="350" height="45" as="geometry">
            <mxRectangle width="350" height="45" as="alternateBounds" />
          </mxGeometry>
        </mxCell>
        <mxCell id="_A281-lSUZGm7CiEEgKg-120" value="" style="shape=tableRow;horizontal=0;startSize=0;swimlaneHead=0;swimlaneBody=0;strokeColor=inherit;top=0;left=0;bottom=0;right=0;collapsible=0;dropTarget=0;fillColor=none;points=[[0,0.5],[1,0.5]];portConstraint=eastwest;" vertex="1" parent="_A281-lSUZGm7CiEEgKg-113">
          <mxGeometry y="89" width="507" height="44" as="geometry" />
        </mxCell>
        <mxCell id="_A281-lSUZGm7CiEEgKg-121" value="&lt;div align=&quot;left&quot;&gt;&lt;b&gt;&lt;font style=&quot;font-size: 24px;&quot;&gt;Augenfarbe:&lt;/font&gt;&lt;/b&gt;&lt;/div&gt;" style="shape=partialRectangle;html=1;whiteSpace=wrap;connectable=0;strokeColor=inherit;overflow=hidden;fillColor=none;top=0;left=0;bottom=0;right=0;pointerEvents=1;align=left;" vertex="1" parent="_A281-lSUZGm7CiEEgKg-120">
          <mxGeometry width="157" height="44" as="geometry">
            <mxRectangle width="157" height="44" as="alternateBounds" />
          </mxGeometry>
        </mxCell>
        <mxCell id="_A281-lSUZGm7CiEEgKg-122" value="&lt;font style=&quot;font-size: 24px;&quot;&gt;&amp;nbsp; Grau&lt;br&gt;&lt;/font&gt;" style="shape=partialRectangle;html=1;whiteSpace=wrap;connectable=0;strokeColor=inherit;overflow=hidden;fillColor=none;top=0;left=0;bottom=0;right=0;pointerEvents=1;align=left;" vertex="1" parent="_A281-lSUZGm7CiEEgKg-120">
          <mxGeometry x="157" width="350" height="44" as="geometry">
            <mxRectangle width="350" height="44" as="alternateBounds" />
          </mxGeometry>
        </mxCell>
        <mxCell id="_A281-lSUZGm7CiEEgKg-123" value="" style="shape=tableRow;horizontal=0;startSize=0;swimlaneHead=0;swimlaneBody=0;strokeColor=inherit;top=0;left=0;bottom=0;right=0;collapsible=0;dropTarget=0;fillColor=none;points=[[0,0.5],[1,0.5]];portConstraint=eastwest;" vertex="1" parent="_A281-lSUZGm7CiEEgKg-113">
          <mxGeometry y="133" width="507" height="44" as="geometry" />
        </mxCell>
        <mxCell id="_A281-lSUZGm7CiEEgKg-124" value="&lt;b&gt;&lt;font style=&quot;font-size: 24px;&quot;&gt;Haarfarbe:&lt;/font&gt;&lt;/b&gt;" style="shape=partialRectangle;html=1;whiteSpace=wrap;connectable=0;strokeColor=inherit;overflow=hidden;fillColor=none;top=0;left=0;bottom=0;right=0;pointerEvents=1;align=left;" vertex="1" parent="_A281-lSUZGm7CiEEgKg-123">
          <mxGeometry width="157" height="44" as="geometry">
            <mxRectangle width="157" height="44" as="alternateBounds" />
          </mxGeometry>
        </mxCell>
        <mxCell id="_A281-lSUZGm7CiEEgKg-125" value="&lt;font style=&quot;font-size: 24px;&quot;&gt;&amp;nbsp; Schwarz&lt;br&gt;&lt;/font&gt;" style="shape=partialRectangle;html=1;whiteSpace=wrap;connectable=0;strokeColor=inherit;overflow=hidden;fillColor=none;top=0;left=0;bottom=0;right=0;pointerEvents=1;align=left;" vertex="1" parent="_A281-lSUZGm7CiEEgKg-123">
          <mxGeometry x="157" width="350" height="44" as="geometry">
            <mxRectangle width="350" height="44" as="alternateBounds" />
          </mxGeometry>
        </mxCell>
        <mxCell id="_A281-lSUZGm7CiEEgKg-126" value="" style="rounded=1;whiteSpace=wrap;html=1;fillColor=none;" vertex="1" parent="1">
          <mxGeometry x="274" y="215" width="140" height="62" as="geometry" />
        </mxCell>
        <mxCell id="_A281-lSUZGm7CiEEgKg-128" value="" style="rounded=1;whiteSpace=wrap;html=1;fillColor=none;" vertex="1" parent="1">
          <mxGeometry x="281" y="648.5" width="285" height="40" as="geometry" />
        </mxCell>
        <mxCell id="_A281-lSUZGm7CiEEgKg-129" value="" style="rounded=1;whiteSpace=wrap;html=1;fillColor=none;" vertex="1" parent="1">
          <mxGeometry x="280" y="604.5" width="286" height="40" as="geometry" />
        </mxCell>
        <mxCell id="_A281-lSUZGm7CiEEgKg-130" value="" style="rounded=1;whiteSpace=wrap;html=1;fillColor=none;" vertex="1" parent="1">
          <mxGeometry x="280" y="558.5" width="286" height="40" as="geometry" />
        </mxCell>
        <mxCell id="_A281-lSUZGm7CiEEgKg-131" value="" style="rounded=1;whiteSpace=wrap;html=1;fillColor=none;" vertex="1" parent="1">
          <mxGeometry x="280" y="514.5" width="286" height="40" as="geometry" />
        </mxCell>
        <mxCell id="_A281-lSUZGm7CiEEgKg-134" value="&lt;font size=&quot;1&quot; color=&quot;#636363&quot;&gt;&lt;i style=&quot;font-size: 24px;&quot;&gt;2300/3500 AP&lt;/i&gt;&lt;/font&gt;" style="text;strokeColor=none;align=center;fillColor=none;html=1;verticalAlign=middle;whiteSpace=wrap;rounded=0;" vertex="1" parent="1">
          <mxGeometry x="919" y="248" width="207" height="30" as="geometry" />
        </mxCell>
        <mxCell id="_A281-lSUZGm7CiEEgKg-135" value="" style="shape=table;startSize=0;container=1;collapsible=0;childLayout=tableLayout;shadow=0;rounded=0;arcSize=48;swimlaneLine=0;strokeWidth=1;strokeColor=none;fillColor=none;" vertex="1" parent="1">
          <mxGeometry x="121" y="693" width="507" height="133" as="geometry" />
        </mxCell>
        <mxCell id="_A281-lSUZGm7CiEEgKg-136" value="" style="shape=tableRow;horizontal=0;startSize=0;swimlaneHead=0;swimlaneBody=0;strokeColor=inherit;top=0;left=0;bottom=0;right=0;collapsible=0;dropTarget=0;fillColor=none;points=[[0,0.5],[1,0.5]];portConstraint=eastwest;" vertex="1" parent="_A281-lSUZGm7CiEEgKg-135">
          <mxGeometry width="507" height="44" as="geometry" />
        </mxCell>
        <mxCell id="_A281-lSUZGm7CiEEgKg-137" value="&lt;div align=&quot;left&quot;&gt;&lt;b&gt;&lt;font style=&quot;font-size: 24px;&quot;&gt;Geburtsort:&lt;/font&gt;&lt;/b&gt;&lt;/div&gt;" style="shape=partialRectangle;html=1;whiteSpace=wrap;connectable=0;strokeColor=inherit;overflow=hidden;fillColor=none;top=0;left=0;bottom=0;right=0;pointerEvents=1;align=left;" vertex="1" parent="_A281-lSUZGm7CiEEgKg-136">
          <mxGeometry width="157" height="44" as="geometry">
            <mxRectangle width="157" height="44" as="alternateBounds" />
          </mxGeometry>
        </mxCell>
        <mxCell id="_A281-lSUZGm7CiEEgKg-138" value="&lt;font style=&quot;font-size: 24px;&quot;&gt;&amp;nbsp; Gareth&lt;br&gt;&lt;/font&gt;" style="shape=partialRectangle;html=1;whiteSpace=wrap;connectable=0;strokeColor=inherit;overflow=hidden;fillColor=none;top=0;left=0;bottom=0;right=0;pointerEvents=1;align=left;" vertex="1" parent="_A281-lSUZGm7CiEEgKg-136">
          <mxGeometry x="157" width="350" height="44" as="geometry">
            <mxRectangle width="350" height="44" as="alternateBounds" />
          </mxGeometry>
        </mxCell>
        <mxCell id="_A281-lSUZGm7CiEEgKg-139" value="" style="shape=tableRow;horizontal=0;startSize=0;swimlaneHead=0;swimlaneBody=0;strokeColor=inherit;top=0;left=0;bottom=0;right=0;collapsible=0;dropTarget=0;fillColor=none;points=[[0,0.5],[1,0.5]];portConstraint=eastwest;" vertex="1" parent="_A281-lSUZGm7CiEEgKg-135">
          <mxGeometry y="44" width="507" height="45" as="geometry" />
        </mxCell>
        <mxCell id="_A281-lSUZGm7CiEEgKg-140" value="&lt;b&gt;&lt;font style=&quot;font-size: 24px;&quot;&gt;Sozialstatus:&lt;/font&gt;&lt;/b&gt;" style="shape=partialRectangle;html=1;whiteSpace=wrap;connectable=0;strokeColor=inherit;overflow=hidden;fillColor=none;top=0;left=0;bottom=0;right=0;pointerEvents=1;align=left;" vertex="1" parent="_A281-lSUZGm7CiEEgKg-139">
          <mxGeometry width="157" height="45" as="geometry">
            <mxRectangle width="157" height="45" as="alternateBounds" />
          </mxGeometry>
        </mxCell>
        <mxCell id="_A281-lSUZGm7CiEEgKg-141" value="&lt;font style=&quot;font-size: 24px;&quot;&gt;&amp;nbsp; 8&lt;br&gt;&lt;/font&gt;" style="shape=partialRectangle;html=1;whiteSpace=wrap;connectable=0;strokeColor=inherit;overflow=hidden;fillColor=none;top=0;left=0;bottom=0;right=0;pointerEvents=1;align=left;" vertex="1" parent="_A281-lSUZGm7CiEEgKg-139">
          <mxGeometry x="157" width="350" height="45" as="geometry">
            <mxRectangle width="350" height="45" as="alternateBounds" />
          </mxGeometry>
        </mxCell>
        <mxCell id="_A281-lSUZGm7CiEEgKg-142" value="" style="shape=tableRow;horizontal=0;startSize=0;swimlaneHead=0;swimlaneBody=0;strokeColor=inherit;top=0;left=0;bottom=0;right=0;collapsible=0;dropTarget=0;fillColor=none;points=[[0,0.5],[1,0.5]];portConstraint=eastwest;" vertex="1" parent="_A281-lSUZGm7CiEEgKg-135">
          <mxGeometry y="89" width="507" height="44" as="geometry" />
        </mxCell>
        <mxCell id="_A281-lSUZGm7CiEEgKg-143" value="" style="shape=partialRectangle;html=1;whiteSpace=wrap;connectable=0;strokeColor=inherit;overflow=hidden;fillColor=none;top=0;left=0;bottom=0;right=0;pointerEvents=1;align=left;" vertex="1" parent="_A281-lSUZGm7CiEEgKg-142">
          <mxGeometry width="157" height="44" as="geometry">
            <mxRectangle width="157" height="44" as="alternateBounds" />
          </mxGeometry>
        </mxCell>
        <mxCell id="_A281-lSUZGm7CiEEgKg-144" value="" style="shape=partialRectangle;html=1;whiteSpace=wrap;connectable=0;strokeColor=inherit;overflow=hidden;fillColor=none;top=0;left=0;bottom=0;right=0;pointerEvents=1;align=left;" vertex="1" parent="_A281-lSUZGm7CiEEgKg-142">
          <mxGeometry x="157" width="350" height="44" as="geometry">
            <mxRectangle width="350" height="44" as="alternateBounds" />
          </mxGeometry>
        </mxCell>
        <mxCell id="_A281-lSUZGm7CiEEgKg-148" value="" style="rounded=1;whiteSpace=wrap;html=1;fillColor=none;" vertex="1" parent="1">
          <mxGeometry x="281" y="742" width="285" height="40" as="geometry" />
        </mxCell>
        <mxCell id="_A281-lSUZGm7CiEEgKg-220" value="" style="shape=table;startSize=0;container=1;collapsible=0;childLayout=tableLayout;shadow=0;rounded=0;arcSize=48;swimlaneLine=0;strokeWidth=1;strokeColor=none;fillColor=none;" vertex="1" parent="1">
          <mxGeometry x="652" y="649.5" width="507" height="177" as="geometry" />
        </mxCell>
        <mxCell id="_A281-lSUZGm7CiEEgKg-221" value="" style="shape=tableRow;horizontal=0;startSize=0;swimlaneHead=0;swimlaneBody=0;strokeColor=inherit;top=0;left=0;bottom=0;right=0;collapsible=0;dropTarget=0;fillColor=none;points=[[0,0.5],[1,0.5]];portConstraint=eastwest;" vertex="1" parent="_A281-lSUZGm7CiEEgKg-220">
          <mxGeometry width="507" height="44" as="geometry" />
        </mxCell>
        <mxCell id="_A281-lSUZGm7CiEEgKg-222" value="&lt;div align=&quot;left&quot;&gt;&lt;b&gt;&lt;font style=&quot;font-size: 24px;&quot;&gt;Tarnname:&lt;/font&gt;&lt;/b&gt;&lt;/div&gt;" style="shape=partialRectangle;html=1;whiteSpace=wrap;connectable=0;strokeColor=inherit;overflow=hidden;fillColor=none;top=0;left=0;bottom=0;right=0;pointerEvents=1;align=left;" vertex="1" parent="_A281-lSUZGm7CiEEgKg-221">
          <mxGeometry width="157" height="44" as="geometry">
            <mxRectangle width="157" height="44" as="alternateBounds" />
          </mxGeometry>
        </mxCell>
        <mxCell id="_A281-lSUZGm7CiEEgKg-223" value="&lt;font style=&quot;font-size: 24px;&quot;&gt;&amp;nbsp; Melanie Grauenstein&lt;br&gt;&lt;/font&gt;" style="shape=partialRectangle;html=1;whiteSpace=wrap;connectable=0;strokeColor=inherit;overflow=hidden;fillColor=none;top=0;left=0;bottom=0;right=0;pointerEvents=1;align=left;" vertex="1" parent="_A281-lSUZGm7CiEEgKg-221">
          <mxGeometry x="157" width="350" height="44" as="geometry">
            <mxRectangle width="350" height="44" as="alternateBounds" />
          </mxGeometry>
        </mxCell>
        <mxCell id="_A281-lSUZGm7CiEEgKg-224" value="" style="shape=tableRow;horizontal=0;startSize=0;swimlaneHead=0;swimlaneBody=0;strokeColor=inherit;top=0;left=0;bottom=0;right=0;collapsible=0;dropTarget=0;fillColor=none;points=[[0,0.5],[1,0.5]];portConstraint=eastwest;" vertex="1" parent="_A281-lSUZGm7CiEEgKg-220">
          <mxGeometry y="44" width="507" height="45" as="geometry" />
        </mxCell>
        <mxCell id="_A281-lSUZGm7CiEEgKg-225" value="&lt;font style=&quot;font-size: 24px;&quot;&gt;&lt;b&gt;Tarnprofes.:&lt;/b&gt;&lt;/font&gt;" style="shape=partialRectangle;html=1;whiteSpace=wrap;connectable=0;strokeColor=inherit;overflow=hidden;fillColor=none;top=0;left=0;bottom=0;right=0;pointerEvents=1;align=left;" vertex="1" parent="_A281-lSUZGm7CiEEgKg-224">
          <mxGeometry width="157" height="45" as="geometry">
            <mxRectangle width="157" height="45" as="alternateBounds" />
          </mxGeometry>
        </mxCell>
        <mxCell id="_A281-lSUZGm7CiEEgKg-226" value="&lt;font style=&quot;font-size: 24px;&quot;&gt;&amp;nbsp; Abenteuerer&lt;br&gt;&lt;/font&gt;" style="shape=partialRectangle;html=1;whiteSpace=wrap;connectable=0;strokeColor=inherit;overflow=hidden;fillColor=none;top=0;left=0;bottom=0;right=0;pointerEvents=1;align=left;" vertex="1" parent="_A281-lSUZGm7CiEEgKg-224">
          <mxGeometry x="157" width="350" height="45" as="geometry">
            <mxRectangle width="350" height="45" as="alternateBounds" />
          </mxGeometry>
        </mxCell>
        <mxCell id="_A281-lSUZGm7CiEEgKg-227" value="" style="shape=tableRow;horizontal=0;startSize=0;swimlaneHead=0;swimlaneBody=0;strokeColor=inherit;top=0;left=0;bottom=0;right=0;collapsible=0;dropTarget=0;fillColor=none;points=[[0,0.5],[1,0.5]];portConstraint=eastwest;" vertex="1" parent="_A281-lSUZGm7CiEEgKg-220">
          <mxGeometry y="89" width="507" height="44" as="geometry" />
        </mxCell>
        <mxCell id="_A281-lSUZGm7CiEEgKg-228" value="&lt;div align=&quot;left&quot;&gt;&lt;b&gt;&lt;font style=&quot;font-size: 24px;&quot;&gt;Tarnkultur:&lt;/font&gt;&lt;/b&gt;&lt;/div&gt;" style="shape=partialRectangle;html=1;whiteSpace=wrap;connectable=0;strokeColor=inherit;overflow=hidden;fillColor=none;top=0;left=0;bottom=0;right=0;pointerEvents=1;align=left;" vertex="1" parent="_A281-lSUZGm7CiEEgKg-227">
          <mxGeometry width="157" height="44" as="geometry">
            <mxRectangle width="157" height="44" as="alternateBounds" />
          </mxGeometry>
        </mxCell>
        <mxCell id="_A281-lSUZGm7CiEEgKg-229" value="&lt;font style=&quot;font-size: 24px;&quot;&gt;&amp;nbsp; Südaventurien&lt;br&gt;&lt;/font&gt;" style="shape=partialRectangle;html=1;whiteSpace=wrap;connectable=0;strokeColor=inherit;overflow=hidden;fillColor=none;top=0;left=0;bottom=0;right=0;pointerEvents=1;align=left;" vertex="1" parent="_A281-lSUZGm7CiEEgKg-227">
          <mxGeometry x="157" width="350" height="44" as="geometry">
            <mxRectangle width="350" height="44" as="alternateBounds" />
          </mxGeometry>
        </mxCell>
        <mxCell id="_A281-lSUZGm7CiEEgKg-230" value="" style="shape=tableRow;horizontal=0;startSize=0;swimlaneHead=0;swimlaneBody=0;strokeColor=inherit;top=0;left=0;bottom=0;right=0;collapsible=0;dropTarget=0;fillColor=none;points=[[0,0.5],[1,0.5]];portConstraint=eastwest;" vertex="1" parent="_A281-lSUZGm7CiEEgKg-220">
          <mxGeometry y="133" width="507" height="44" as="geometry" />
        </mxCell>
        <mxCell id="_A281-lSUZGm7CiEEgKg-231" value="" style="shape=partialRectangle;html=1;whiteSpace=wrap;connectable=0;strokeColor=inherit;overflow=hidden;fillColor=none;top=0;left=0;bottom=0;right=0;pointerEvents=1;align=left;" vertex="1" parent="_A281-lSUZGm7CiEEgKg-230">
          <mxGeometry width="157" height="44" as="geometry">
            <mxRectangle width="157" height="44" as="alternateBounds" />
          </mxGeometry>
        </mxCell>
        <mxCell id="_A281-lSUZGm7CiEEgKg-232" value="" style="shape=partialRectangle;html=1;whiteSpace=wrap;connectable=0;strokeColor=inherit;overflow=hidden;fillColor=none;top=0;left=0;bottom=0;right=0;pointerEvents=1;align=left;" vertex="1" parent="_A281-lSUZGm7CiEEgKg-230">
          <mxGeometry x="157" width="350" height="44" as="geometry">
            <mxRectangle width="350" height="44" as="alternateBounds" />
          </mxGeometry>
        </mxCell>
        <mxCell id="_A281-lSUZGm7CiEEgKg-234" value="" style="rounded=1;whiteSpace=wrap;html=1;fillColor=none;" vertex="1" parent="1">
          <mxGeometry x="811" y="741" width="286" height="40" as="geometry" />
        </mxCell>
        <mxCell id="_A281-lSUZGm7CiEEgKg-235" value="" style="rounded=1;whiteSpace=wrap;html=1;fillColor=none;" vertex="1" parent="1">
          <mxGeometry x="811" y="695" width="286" height="40" as="geometry" />
        </mxCell>
        <mxCell id="_A281-lSUZGm7CiEEgKg-236" value="" style="rounded=1;whiteSpace=wrap;html=1;fillColor=none;" vertex="1" parent="1">
          <mxGeometry x="811" y="651" width="286" height="40" as="geometry" />
        </mxCell>
        <mxCell id="_A281-lSUZGm7CiEEgKg-257" value="&lt;div align=&quot;left&quot;&gt;&lt;b&gt;&lt;font style=&quot;font-size: 48px;&quot; face=&quot;Georgia&quot;&gt;Arya&lt;/font&gt;&lt;/b&gt;&lt;/div&gt;" style="text;strokeColor=none;align=left;fillColor=none;html=1;verticalAlign=middle;whiteSpace=wrap;rounded=0;" vertex="1" parent="1">
          <mxGeometry x="284" y="231" width="310" height="30" as="geometry" />
        </mxCell>
        <mxCell id="_A281-lSUZGm7CiEEgKg-268" value="&lt;font style=&quot;font-size: 24px;&quot;&gt;&lt;b&gt;Titel:&lt;/b&gt;&lt;/font&gt;" style="shape=partialRectangle;html=1;whiteSpace=wrap;connectable=0;strokeColor=inherit;overflow=hidden;fillColor=none;top=0;left=0;bottom=0;right=0;pointerEvents=1;align=left;" vertex="1" parent="1">
          <mxGeometry x="653" y="512.5" width="157" height="45" as="geometry">
            <mxRectangle width="157" height="45" as="alternateBounds" />
          </mxGeometry>
        </mxCell>
        <mxCell id="_A281-lSUZGm7CiEEgKg-269" value="&lt;div align=&quot;left&quot;&gt;&lt;b&gt;&lt;font style=&quot;font-size: 24px;&quot;&gt;Anrede:&lt;/font&gt;&lt;/b&gt;&lt;/div&gt;" style="shape=partialRectangle;html=1;whiteSpace=wrap;connectable=0;strokeColor=inherit;overflow=hidden;fillColor=none;top=0;left=0;bottom=0;right=0;pointerEvents=1;align=left;" vertex="1" parent="1">
          <mxGeometry x="653" y="557.5" width="157" height="44" as="geometry">
            <mxRectangle width="157" height="44" as="alternateBounds" />
          </mxGeometry>
        </mxCell>
        <mxCell id="_A281-lSUZGm7CiEEgKg-270" value="" style="rounded=1;whiteSpace=wrap;html=1;fillColor=none;" vertex="1" parent="1">
          <mxGeometry x="812" y="560" width="286" height="40" as="geometry" />
        </mxCell>
        <mxCell id="_A281-lSUZGm7CiEEgKg-271" value="" style="rounded=1;whiteSpace=wrap;html=1;fillColor=none;" vertex="1" parent="1">
          <mxGeometry x="812" y="514" width="286" height="40" as="geometry" />
        </mxCell>
        <mxCell id="_A281-lSUZGm7CiEEgKg-273" value="&lt;font style=&quot;font-size: 24px;&quot;&gt;&amp;nbsp; Grauschatten&lt;br&gt;&lt;/font&gt;" style="shape=partialRectangle;html=1;whiteSpace=wrap;connectable=0;strokeColor=inherit;overflow=hidden;fillColor=none;top=0;left=0;bottom=0;right=0;pointerEvents=1;align=left;" vertex="1" parent="1">
          <mxGeometry x="812" y="512.5" width="350" height="45" as="geometry">
            <mxRectangle width="350" height="45" as="alternateBounds" />
          </mxGeometry>
        </mxCell>
        <mxCell id="_A281-lSUZGm7CiEEgKg-274" value="&lt;font style=&quot;font-size: 24px;&quot;&gt;&lt;br&gt;&lt;/font&gt;" style="shape=partialRectangle;html=1;whiteSpace=wrap;connectable=0;strokeColor=inherit;overflow=hidden;fillColor=none;top=0;left=0;bottom=0;right=0;pointerEvents=1;align=left;" vertex="1" parent="1">
          <mxGeometry x="812" y="557.5" width="350" height="44" as="geometry">
            <mxRectangle width="350" height="44" as="alternateBounds" />
          </mxGeometry>
        </mxCell>
        <mxCell id="_A281-lSUZGm7CiEEgKg-285" value="&lt;font style=&quot;font-size: 64px;&quot; color=&quot;#7df084&quot;&gt;+&lt;/font&gt;" style="text;align=center;html=1;verticalAlign=middle;whiteSpace=wrap;rounded=0;" vertex="1" parent="1">
          <mxGeometry x="1125" y="247" width="37" height="30" as="geometry" />
        </mxCell>
        <mxCell id="_A281-lSUZGm7CiEEgKg-286" value="" style="shape=loopLimit;whiteSpace=wrap;html=1;rotation=-180;size=0;fillColor=#3D334A;" vertex="1" parent="1">
          <mxGeometry x="130" y="60" width="150" height="72" as="geometry" />
        </mxCell>
        <mxCell id="_A281-lSUZGm7CiEEgKg-287" value="&lt;font style=&quot;font-size: 24px;&quot;&gt;Allgemeines&lt;/font&gt;" style="text;strokeColor=none;align=center;fillColor=none;html=1;verticalAlign=middle;whiteSpace=wrap;rounded=0;" vertex="1" parent="1">
          <mxGeometry x="130" y="81" width="150" height="30" as="geometry" />
        </mxCell>
        <mxCell id="_A281-lSUZGm7CiEEgKg-288" value="&lt;font style=&quot;font-size: 18px;&quot;&gt;Eigenschaften&lt;/font&gt;" style="text;strokeColor=none;align=center;fillColor=none;html=1;verticalAlign=middle;whiteSpace=wrap;rounded=0;" vertex="1" parent="1">
          <mxGeometry x="280" y="90" width="150" height="12" as="geometry" />
        </mxCell>
        <mxCell id="_A281-lSUZGm7CiEEgKg-291" value="" style="endArrow=none;html=1;rounded=0;exitX=0;exitY=0.06;exitDx=0;exitDy=0;exitPerimeter=0;" edge="1" parent="1" source="8euLcORZt_nUvRzcAU-U-29">
          <mxGeometry width="50" height="50" relative="1" as="geometry">
            <mxPoint x="50" y="30" as="sourcePoint" />
            <mxPoint x="1210" y="60" as="targetPoint" />
          </mxGeometry>
        </mxCell>
        <mxCell id="_A281-lSUZGm7CiEEgKg-295" value="&lt;font style=&quot;font-size: 18px;&quot;&gt;Vor- &amp;amp; Nachteile&lt;/font&gt;" style="text;strokeColor=none;align=center;fillColor=none;html=1;verticalAlign=middle;whiteSpace=wrap;rounded=0;" vertex="1" parent="1">
          <mxGeometry x="422.5" y="80" width="165" height="30" as="geometry" />
        </mxCell>
        <mxCell id="_A281-lSUZGm7CiEEgKg-298" value="&lt;font style=&quot;font-size: 18px;&quot;&gt;Talente&lt;/font&gt;" style="text;strokeColor=none;align=center;fillColor=none;html=1;verticalAlign=middle;whiteSpace=wrap;rounded=0;" vertex="1" parent="1">
          <mxGeometry x="572.5" y="80" width="165" height="30" as="geometry" />
        </mxCell>
        <mxCell id="_A281-lSUZGm7CiEEgKg-302" value="&lt;font style=&quot;font-size: 16px;&quot;&gt;Sonderfertigkeiten&lt;/font&gt;" style="text;strokeColor=none;align=center;fillColor=none;html=1;verticalAlign=middle;whiteSpace=wrap;rounded=0;" vertex="1" parent="1">
          <mxGeometry x="722.5" y="80" width="165" height="30" as="geometry" />
        </mxCell>
        <mxCell id="_A281-lSUZGm7CiEEgKg-304" value="&lt;font style=&quot;font-size: 18px;&quot;&gt;Inventar&lt;/font&gt;" style="text;strokeColor=none;align=center;fillColor=none;html=1;verticalAlign=middle;whiteSpace=wrap;rounded=0;" vertex="1" parent="1">
          <mxGeometry x="872.5" y="81" width="165" height="30" as="geometry" />
        </mxCell>
        <mxCell id="_A281-lSUZGm7CiEEgKg-311" value="" style="shape=loopLimit;whiteSpace=wrap;html=1;rotation=-180;size=8;fillColor=none;" vertex="1" parent="1">
          <mxGeometry x="280" y="60" width="150" height="72" as="geometry" />
        </mxCell>
        <mxCell id="_A281-lSUZGm7CiEEgKg-312" value="" style="shape=loopLimit;whiteSpace=wrap;html=1;rotation=-180;size=8;fillColor=none;" vertex="1" parent="1">
          <mxGeometry x="430" y="60" width="150" height="72" as="geometry" />
        </mxCell>
        <mxCell id="_A281-lSUZGm7CiEEgKg-313" value="" style="shape=loopLimit;whiteSpace=wrap;html=1;rotation=-180;size=8;fillColor=none;" vertex="1" parent="1">
          <mxGeometry x="580" y="60" width="150" height="72" as="geometry" />
        </mxCell>
        <mxCell id="_A281-lSUZGm7CiEEgKg-314" value="" style="shape=loopLimit;whiteSpace=wrap;html=1;rotation=-180;size=8;fillColor=none;" vertex="1" parent="1">
          <mxGeometry x="730" y="60" width="150" height="72" as="geometry" />
        </mxCell>
        <mxCell id="_A281-lSUZGm7CiEEgKg-315" value="" style="shape=loopLimit;whiteSpace=wrap;html=1;rotation=-180;size=8;fillColor=none;" vertex="1" parent="1">
          <mxGeometry x="880" y="60" width="150" height="72" as="geometry" />
        </mxCell>
        <mxCell id="_A281-lSUZGm7CiEEgKg-316" value="" style="shape=loopLimit;whiteSpace=wrap;html=1;rotation=-180;size=8;fillColor=#544866;fontColor=#ffffff;strokeColor=#CCCCCC;" vertex="1" parent="1">
          <mxGeometry x="130" y="132" width="150" height="44" as="geometry" />
        </mxCell>
        <mxCell id="_A281-lSUZGm7CiEEgKg-317" value="" style="shape=loopLimit;whiteSpace=wrap;html=1;rotation=-180;size=8;fillColor=none;" vertex="1" parent="1">
          <mxGeometry x="280" y="132" width="150" height="44" as="geometry" />
        </mxCell>
        <mxCell id="_A281-lSUZGm7CiEEgKg-319" value="&lt;font style=&quot;font-size: 18px;&quot;&gt;Übersicht&lt;/font&gt;" style="text;strokeColor=none;align=center;fillColor=none;html=1;verticalAlign=middle;whiteSpace=wrap;rounded=0;" vertex="1" parent="1">
          <mxGeometry x="142.5" y="139" width="125" height="30" as="geometry" />
        </mxCell>
        <mxCell id="_A281-lSUZGm7CiEEgKg-320" value="&lt;font style=&quot;font-size: 18px;&quot;&gt;Heldenbogen&lt;/font&gt;" style="text;strokeColor=none;align=center;fillColor=none;html=1;verticalAlign=middle;whiteSpace=wrap;rounded=0;" vertex="1" parent="1">
          <mxGeometry x="292.5" y="139" width="125" height="30" as="geometry" />
        </mxCell>
        <mxCell id="_A281-lSUZGm7CiEEgKg-322" value="&lt;font style=&quot;font-size: 24px;&quot;&gt;Bild einfügen&lt;/font&gt;" style="text;strokeColor=none;align=center;fillColor=none;html=1;verticalAlign=middle;whiteSpace=wrap;rounded=0;" vertex="1" parent="1">
          <mxGeometry x="124" y="307.5" width="60" height="65" as="geometry" />
        </mxCell>
      </root>
    </mxGraphModel>
  </diagram>
</mxfile>
